<mxfile host="app.diagrams.net" modified="2023-10-03T02:32:18.776Z" agent="Mozilla/5.0 (Windows NT 10.0; Win64; x64) AppleWebKit/537.36 (KHTML, like Gecko) Chrome/117.0.0.0 Safari/537.36" etag="-OW8RqCIDJUs4N2Bh4N-" version="22.0.0" type="device">
  <diagram name="Page-1" id="vxmX9IcuANHZhc19dpk6">
    <mxGraphModel dx="1706" dy="731" grid="1" gridSize="10" guides="1" tooltips="1" connect="1" arrows="1" fold="1" page="1" pageScale="1" pageWidth="850" pageHeight="1100" math="0" shadow="0">
      <root>
        <mxCell id="0" />
        <mxCell id="1" parent="0" />
        <mxCell id="3LgieZ-zdbI1btkf2KY8-5" value="" style="whiteSpace=wrap;html=1;aspect=fixed;" parent="1" vertex="1">
          <mxGeometry x="1130" y="227.5" width="322.5" height="322.5" as="geometry" />
        </mxCell>
        <mxCell id="rRkezNHVzFaMaohMb3sr-31" value="" style="rounded=0;whiteSpace=wrap;html=1;" parent="1" vertex="1">
          <mxGeometry x="455" y="205" width="120" height="200" as="geometry" />
        </mxCell>
        <mxCell id="rRkezNHVzFaMaohMb3sr-1" value="Customer" style="shape=umlActor;verticalLabelPosition=bottom;verticalAlign=top;html=1;outlineConnect=0;" parent="1" vertex="1">
          <mxGeometry x="500" y="230" width="30" height="60" as="geometry" />
        </mxCell>
        <mxCell id="rRkezNHVzFaMaohMb3sr-2" value="" style="whiteSpace=wrap;html=1;aspect=fixed;" parent="1" vertex="1">
          <mxGeometry x="600" y="80" width="510" height="510" as="geometry" />
        </mxCell>
        <mxCell id="rRkezNHVzFaMaohMb3sr-3" value="Vendor" style="shape=umlActor;verticalLabelPosition=bottom;verticalAlign=top;html=1;outlineConnect=0;" parent="1" vertex="1">
          <mxGeometry x="1190" y="250" width="30" height="60" as="geometry" />
        </mxCell>
        <mxCell id="rRkezNHVzFaMaohMb3sr-4" value="3. Place order" style="ellipse;whiteSpace=wrap;html=1;" parent="1" vertex="1">
          <mxGeometry x="650" y="100" width="120" height="90" as="geometry" />
        </mxCell>
        <mxCell id="rRkezNHVzFaMaohMb3sr-5" value="4. Check out" style="ellipse;whiteSpace=wrap;html=1;" parent="1" vertex="1">
          <mxGeometry x="640" y="260" width="120" height="90" as="geometry" />
        </mxCell>
        <mxCell id="rRkezNHVzFaMaohMb3sr-6" value="5. Maintain order" style="ellipse;whiteSpace=wrap;html=1;" parent="1" vertex="1">
          <mxGeometry x="795" y="190" width="120" height="90" as="geometry" />
        </mxCell>
        <mxCell id="rRkezNHVzFaMaohMb3sr-7" value="6. Place Instore hold" style="ellipse;whiteSpace=wrap;html=1;" parent="1" vertex="1">
          <mxGeometry x="640" y="370" width="120" height="90" as="geometry" />
        </mxCell>
        <mxCell id="rRkezNHVzFaMaohMb3sr-10" value="1. Maintain marketing information" style="ellipse;whiteSpace=wrap;html=1;" parent="1" vertex="1">
          <mxGeometry x="915" y="100" width="120" height="90" as="geometry" />
        </mxCell>
        <mxCell id="rRkezNHVzFaMaohMb3sr-11" value="2. Maintain CD information" style="ellipse;whiteSpace=wrap;html=1;" parent="1" vertex="1">
          <mxGeometry x="920" y="270" width="120" height="90" as="geometry" />
        </mxCell>
        <mxCell id="rRkezNHVzFaMaohMb3sr-13" value="7. Place special order" style="ellipse;whiteSpace=wrap;html=1;" parent="1" vertex="1">
          <mxGeometry x="640" y="480" width="120" height="90" as="geometry" />
        </mxCell>
        <mxCell id="rRkezNHVzFaMaohMb3sr-14" value="" style="endArrow=none;html=1;rounded=0;" parent="1" target="rRkezNHVzFaMaohMb3sr-4" edge="1">
          <mxGeometry width="50" height="50" relative="1" as="geometry">
            <mxPoint x="540" y="260" as="sourcePoint" />
            <mxPoint x="590" y="210" as="targetPoint" />
          </mxGeometry>
        </mxCell>
        <mxCell id="rRkezNHVzFaMaohMb3sr-17" value="&amp;lt;&amp;lt;include&amp;gt;&amp;gt;" style="html=1;verticalAlign=bottom;labelBackgroundColor=none;endArrow=open;endFill=0;dashed=1;rounded=0;exitX=0.975;exitY=0.278;exitDx=0;exitDy=0;exitPerimeter=0;" parent="1" source="rRkezNHVzFaMaohMb3sr-5" target="rRkezNHVzFaMaohMb3sr-6" edge="1">
          <mxGeometry width="160" relative="1" as="geometry">
            <mxPoint x="710" y="310" as="sourcePoint" />
            <mxPoint x="870" y="310" as="targetPoint" />
          </mxGeometry>
        </mxCell>
        <mxCell id="rRkezNHVzFaMaohMb3sr-18" value="&amp;lt;&amp;lt;include&amp;gt;&amp;gt;" style="html=1;verticalAlign=bottom;labelBackgroundColor=none;endArrow=open;endFill=0;dashed=1;rounded=0;exitX=0.5;exitY=1;exitDx=0;exitDy=0;" parent="1" source="rRkezNHVzFaMaohMb3sr-4" target="rRkezNHVzFaMaohMb3sr-5" edge="1">
          <mxGeometry width="160" relative="1" as="geometry">
            <mxPoint x="690" y="180" as="sourcePoint" />
            <mxPoint x="850" y="150" as="targetPoint" />
          </mxGeometry>
        </mxCell>
        <mxCell id="rRkezNHVzFaMaohMb3sr-20" value="" style="endArrow=none;html=1;rounded=0;" parent="1" source="rRkezNHVzFaMaohMb3sr-7" edge="1">
          <mxGeometry width="50" height="50" relative="1" as="geometry">
            <mxPoint x="490" y="310" as="sourcePoint" />
            <mxPoint x="540" y="260" as="targetPoint" />
          </mxGeometry>
        </mxCell>
        <mxCell id="rRkezNHVzFaMaohMb3sr-21" value="" style="endArrow=none;html=1;rounded=0;entryX=0;entryY=0;entryDx=0;entryDy=0;" parent="1" target="rRkezNHVzFaMaohMb3sr-13" edge="1">
          <mxGeometry width="50" height="50" relative="1" as="geometry">
            <mxPoint x="540" y="260" as="sourcePoint" />
            <mxPoint x="560" y="320" as="targetPoint" />
          </mxGeometry>
        </mxCell>
        <mxCell id="rRkezNHVzFaMaohMb3sr-22" value="&amp;lt;&amp;lt;extend&amp;gt;&amp;gt;" style="html=1;verticalAlign=bottom;labelBackgroundColor=none;endArrow=open;endFill=0;dashed=1;rounded=0;entryX=0.953;entryY=0.287;entryDx=0;entryDy=0;entryPerimeter=0;" parent="1" target="rRkezNHVzFaMaohMb3sr-7" edge="1">
          <mxGeometry width="160" relative="1" as="geometry">
            <mxPoint x="840" y="279.29" as="sourcePoint" />
            <mxPoint x="1000" y="279.29" as="targetPoint" />
          </mxGeometry>
        </mxCell>
        <mxCell id="rRkezNHVzFaMaohMb3sr-23" value="&amp;lt;&amp;lt;extend&amp;gt;&amp;gt;" style="html=1;verticalAlign=bottom;labelBackgroundColor=none;endArrow=open;endFill=0;dashed=1;rounded=0;entryX=1;entryY=0.5;entryDx=0;entryDy=0;" parent="1" target="rRkezNHVzFaMaohMb3sr-13" edge="1">
          <mxGeometry width="160" relative="1" as="geometry">
            <mxPoint x="840" y="279.29" as="sourcePoint" />
            <mxPoint x="1000" y="279.29" as="targetPoint" />
          </mxGeometry>
        </mxCell>
        <mxCell id="rRkezNHVzFaMaohMb3sr-24" value="" style="endArrow=none;html=1;rounded=0;exitX=1;exitY=1;exitDx=0;exitDy=0;" parent="1" source="rRkezNHVzFaMaohMb3sr-10" edge="1">
          <mxGeometry width="50" height="50" relative="1" as="geometry">
            <mxPoint x="1034.9953846153849" y="129.9999999999999" as="sourcePoint" />
            <mxPoint x="1180" y="280" as="targetPoint" />
          </mxGeometry>
        </mxCell>
        <mxCell id="3LgieZ-zdbI1btkf2KY8-6" value="Credit Centre&lt;br&gt;" style="shape=umlActor;verticalLabelPosition=bottom;verticalAlign=top;html=1;outlineConnect=0;" parent="1" vertex="1">
          <mxGeometry x="500" y="320" width="30" height="60" as="geometry" />
        </mxCell>
        <mxCell id="3LgieZ-zdbI1btkf2KY8-7" value="" style="endArrow=none;html=1;rounded=0;exitX=0.5;exitY=0.5;exitDx=0;exitDy=0;exitPerimeter=0;" parent="1" source="3LgieZ-zdbI1btkf2KY8-6" target="rRkezNHVzFaMaohMb3sr-5" edge="1">
          <mxGeometry width="50" height="50" relative="1" as="geometry">
            <mxPoint x="720" y="360" as="sourcePoint" />
            <mxPoint x="770" y="310" as="targetPoint" />
          </mxGeometry>
        </mxCell>
        <mxCell id="3LgieZ-zdbI1btkf2KY8-12" value="Distribution System&lt;br&gt;" style="shape=umlActor;verticalLabelPosition=bottom;verticalAlign=top;html=1;outlineConnect=0;" parent="1" vertex="1">
          <mxGeometry x="1190" y="340" width="30" height="60" as="geometry" />
        </mxCell>
        <mxCell id="3LgieZ-zdbI1btkf2KY8-13" value="" style="endArrow=none;html=1;rounded=0;exitX=0.992;exitY=0.6;exitDx=0;exitDy=0;exitPerimeter=0;" parent="1" source="rRkezNHVzFaMaohMb3sr-11" target="3LgieZ-zdbI1btkf2KY8-12" edge="1">
          <mxGeometry width="50" height="50" relative="1" as="geometry">
            <mxPoint x="950" y="300" as="sourcePoint" />
            <mxPoint x="1000" y="250" as="targetPoint" />
          </mxGeometry>
        </mxCell>
        <mxCell id="uOkJw6jUE-0LWl00IRDX-1" value="Store" style="shape=umlActor;verticalLabelPosition=bottom;verticalAlign=top;html=1;outlineConnect=0;" vertex="1" parent="1">
          <mxGeometry x="1190" y="440" width="30" height="60" as="geometry" />
        </mxCell>
        <mxCell id="uOkJw6jUE-0LWl00IRDX-2" value="" style="endArrow=none;html=1;rounded=0;" edge="1" parent="1" source="uOkJw6jUE-0LWl00IRDX-1" target="rRkezNHVzFaMaohMb3sr-7">
          <mxGeometry width="50" height="50" relative="1" as="geometry">
            <mxPoint x="680" y="440" as="sourcePoint" />
            <mxPoint x="730" y="390" as="targetPoint" />
          </mxGeometry>
        </mxCell>
        <mxCell id="uOkJw6jUE-0LWl00IRDX-3" value="" style="endArrow=none;html=1;rounded=0;entryX=0.5;entryY=0.5;entryDx=0;entryDy=0;entryPerimeter=0;" edge="1" parent="1" source="rRkezNHVzFaMaohMb3sr-13" target="uOkJw6jUE-0LWl00IRDX-1">
          <mxGeometry width="50" height="50" relative="1" as="geometry">
            <mxPoint x="680" y="440" as="sourcePoint" />
            <mxPoint x="730" y="390" as="targetPoint" />
          </mxGeometry>
        </mxCell>
      </root>
    </mxGraphModel>
  </diagram>
</mxfile>
